<?xml version="1.0" encoding="utf-8"?>
<!-- Generator: Adobe Illustrator 22.0.1, SVG Export Plug-In . SVG Version: 6.00 Build 0)  -->
<svg version="1.1" id="Layer_1" xmlns="http://www.w3.org/2000/svg" xmlns:xlink="http://www.w3.org/1999/xlink" x="0px" y="0px"
	 viewBox="0 0 90 47" style="enable-background:new 0 0 90 47;" xml:space="preserve">
<style type="text/css">
	.st0{fill:#0048FC;}
</style>
<g>
	<g>
		<path class="st0" d="M9.3,26.3h2.3c0,2.8,2,4.4,5.3,4.4c2.9,0,4.6-1.3,4.6-3.3c0-2.5-2.5-2.9-5.2-3.3c-3.2-0.5-6.8-1.3-6.8-5.2
			c0-3.2,2.5-5.3,6.8-5.3c4.4,0,7.1,2.3,7.1,6.1h-2.2c0-2.5-1.8-4-4.9-4c-2.9,0-4.5,1.2-4.5,3.2c0,2.4,2.4,2.8,5,3.2
			c3.3,0.5,6.9,1.2,6.9,5.3c0,3.4-2.6,5.5-7,5.5C12.2,32.8,9.3,30.3,9.3,26.3z"/>
		<path class="st0" d="M25.1,25.5c0-3.9,2.8-6.8,6.8-6.8c3.9,0,6.7,2.8,6.7,6.8c0,0.3,0,0.6,0,0.8H27.3c0.3,2.6,2.2,4.3,4.8,4.3
			c1.9,0,3.6-1,4.4-2.5l1.8,0.9c-1,2.2-3.4,3.5-6.2,3.5C28,32.6,25.1,29.7,25.1,25.5z M36.5,24.5c-0.4-2.3-2.2-3.9-4.6-3.9
			c-2.4,0-4.2,1.6-4.5,3.9H36.5z"/>
		<path class="st0" d="M42,28.8V21H40v-1.7H42l0.5-4.1h1.7l0,4.1h3.3V21h-3.3v7.8c0,1.2,0.8,2.1,2,2.1c0.4,0,1-0.1,1.5-0.3v1.7
			c-0.6,0.2-1.5,0.3-2.1,0.3C43.4,32.6,42,31.1,42,28.8z"/>
		<path class="st0" d="M51,28.8V21h-2.1v-1.7H51l0.5-4.1h1.7l0,4.1h3.3V21h-3.3v7.8c0,1.2,0.8,2.1,2,2.1c0.4,0,1-0.1,1.5-0.3v1.7
			c-0.6,0.2-1.5,0.3-2.1,0.3C52.4,32.6,51,31.1,51,28.8z"/>
		<path class="st0" d="M59.3,13.4h2.1v18.7h-2.1V13.4z"/>
		<path class="st0" d="M63.6,25.5c0-3.9,2.8-6.8,6.8-6.8c3.9,0,6.7,2.8,6.7,6.8c0,0.3,0,0.6,0,0.8H65.8c0.3,2.6,2.2,4.3,4.8,4.3
			c1.9,0,3.6-1,4.4-2.5l1.8,0.9c-1,2.2-3.4,3.5-6.2,3.5C66.5,32.6,63.6,29.7,63.6,25.5z M75,24.5c-0.4-2.3-2.2-3.9-4.6-3.9
			c-2.4,0-4.2,1.6-4.5,3.9H75z"/>
	</g>
</g>
</svg>
